<?xml version="1.0" encoding="UTF-8"?>
<svg width="109px" height="41px" viewBox="0 0 109 41" version="1.1" xmlns="http://www.w3.org/2000/svg" xmlns:xlink="http://www.w3.org/1999/xlink">
    <!-- Generator: sketchtool 51.2 (57519) - http://www.bohemiancoding.com/sketch -->
    <title>A9878F48-A68C-451D-A7A3-66C61CA92183</title>
    <desc>Created with sketchtool.</desc>
    <defs>
        <polygon id="path-1" points="0.174561349 0.0710061947 29.6588821 0.0710061947 29.6588821 11.2477876 0.174561349 11.2477876"></polygon>
        <polygon id="path-3" points="0.0305307566 0.0960960177 7.18790461 0.0960960177 7.18790461 9.28934823 0.0305307566 9.28934823"></polygon>
    </defs>
    <g id="Desktop" stroke="none" stroke-width="1" fill="none" fill-rule="evenodd">
        <g id="Desktop_main-1" transform="translate(-148.000000, -17.000000)">
            <g id="header">
                <g id="Logotype" transform="translate(148.000000, 17.000000)">
                    <g id="Group-3" transform="translate(4.481908, 29.690531)">
                        <mask id="mask-2" fill="white">
                            <use xlink:href="#path-1"></use>
                        </mask>
                        <g id="Clip-2"></g>
                        <path d="M24.1362752,0.0710061947 C22.6617275,0.0710061947 20.7382719,0.935634513 17.8996107,2.87478938 C17.6916502,3.01665664 17.6305169,3.29875841 17.7606715,3.51573186 C17.8908262,3.73270531 18.1665531,3.80817434 18.3868837,3.68716991 C19.9385202,2.83524071 21.4532258,2.07039115 22.920961,2.0653115 C24.9636354,2.0653115 26.6257061,3.74703717 26.6257061,5.81427168 C26.6257061,7.95153274 25.0330153,9.56323186 22.920961,9.56323186 C22.4655992,9.56323186 21.7538722,9.32593982 20.8051419,8.85752389 L12.4614429,3.27898407 C10.3741288,1.69123186 7.94224556,0.0710061947 5.69716826,0.0710061947 C2.65198076,0.0710061947 0.174561349,2.5778115 0.174561349,5.65952389 C0.174561349,8.74087345 2.65198076,11.2478602 5.69716826,11.2478602 C7.71079984,11.2478602 9.06326036,10.3215504 10.9349051,9.03948407 C11.1157949,8.91539558 11.302063,8.78786018 11.4946058,8.65724071 C11.6970087,8.51990885 11.7622653,8.24905487 11.6448393,8.0329885 C11.5275926,7.81710354 11.2669248,7.7278469 11.0435465,7.82653717 C10.5487439,8.04677611 10.1093377,8.27717434 9.68463207,8.4999531 C8.63640345,9.04946195 7.73123734,9.52404602 6.4931551,9.56323186 C4.4501222,9.56323186 2.78841003,7.88150619 2.78841003,5.81427168 C2.78841003,3.74703717 4.4501222,2.0653115 6.50731793,2.06513009 C7.6649051,2.02775841 9.86426694,3.27118319 11.3977965,4.19567876 L20.2002637,10.1129221 C21.8879709,11.2478602 22.9299248,11.2478602 24.1362752,11.2478602 C27.1814627,11.2478602 29.6588821,8.74087345 29.6588821,5.65952389 C29.6588821,2.5778115 27.1814627,0.0710061947 24.1362752,0.0710061947" id="Fill-1" fill="#F4B200" mask="url(#mask-2)"></path>
                    </g>
                    <path d="M38.6916296,13.8701912 C38.6760326,13.6229212 38.5638056,13.3988726 38.3757447,13.2388637 C38.188401,13.0792177 37.9409997,13.0039301 37.697901,13.0298726 L36.47685,13.164846 C32.9529947,13.5957088 30.0202135,15.2130319 28.1225737,17.6993372 C27.8782201,13.8036115 25.9370161,10.6047044 23.7620359,7.02228407 C22.5375786,5.00584602 21.2715293,2.92083274 20.2068072,0.531766372 C20.0596214,0.202133628 19.7274224,-0.000326548673 19.3765786,3.62831858e-05 C19.0192809,0.00674867257 18.7010655,0.227169027 18.5660704,0.561881416 C17.4984799,3.21327522 16.1470951,5.45847876 14.8401707,7.6296646 C12.8761987,10.8920673 10.9993549,14.0126027 10.6972743,17.8092752 C8.80268224,15.2594743 5.83153586,13.601877 2.25085,13.1641204 L1.03535658,13.0298726 C0.792437171,13.0039301 0.544856579,13.0792177 0.357512829,13.2388637 C0.169272697,13.3988726 0.0570457237,13.6229212 0.0414486842,13.8701912 C-0.148584211,16.8933062 0.320761184,20.0415982 1.32936974,22.5077664 C2.51528257,25.4077 4.33439934,27.2124257 6.59023322,27.7265584 C6.62375789,27.7341779 6.65782039,27.7398018 6.69295855,27.7441558 L7.19869704,27.8058372 C7.21787961,27.8081956 7.23688289,27.8094655 7.25552763,27.8094655 C7.48177434,27.8094655 7.67987467,27.6445584 7.71859836,27.4132531 C7.76072829,27.1630805 7.60099309,26.9234301 7.35610164,26.8690053 C3.76179079,26.0696867 2.11065592,20.6707487 2.37472993,15.9758858 L3.30911809,16.0791115 C7.57786645,16.6010451 10.120901,18.3645894 10.867049,21.3207619 C10.8684832,21.3262044 10.8708138,21.3311027 10.8726066,21.3365451 C11.0744717,22.5197398 11.6022612,25.0392442 12.2695276,26.1649301 C12.3566559,26.3116956 12.5117299,26.3956912 12.6727201,26.3956912 C12.7288336,26.3956912 12.7854849,26.3858947 12.8401641,26.364669 C13.0531444,26.2824876 13.1772036,26.0575319 13.1345359,25.8309434 C12.9801789,25.0098549 12.7906839,22.7789832 12.7121609,21.7140717 C12.3932283,17.4007265 14.1906526,14.5069611 16.2718714,11.1565717 C17.3263747,9.45924425 18.4160161,7.70513363 19.3948648,5.56551416 C20.3276395,7.41051416 21.2980622,8.97994336 22.236753,10.4983947 C24.5379438,14.2206867 26.355447,17.1608947 26.0659158,21.7002841 C26.0546214,21.8768018 26.0447612,22.0685584 26.0343632,22.2741027 C25.9863171,23.2165584 25.9264388,24.3895938 25.6464092,25.7942973 C25.600873,26.0228814 25.7258286,26.2512841 25.941498,26.3334655 C26.1568089,26.4163726 26.399549,26.3282044 26.5148237,26.1261071 C27.1186263,25.0653681 27.5720161,22.9233903 27.8705112,21.3060673 C28.6214997,18.3589655 31.1625622,16.6001381 35.4187612,16.0796558 L36.3583484,15.9758858 C36.6224224,20.6707487 34.9716461,26.0696867 31.3771559,26.8690053 C31.1320852,26.9234301 30.9725293,27.1630805 31.0146592,27.4132531 C31.0535622,27.6445584 31.2514832,27.8094655 31.4777299,27.8094655 C31.4963747,27.8094655 31.5155572,27.8081956 31.5343812,27.8058372 L32.0411954,27.7441558 C32.0752579,27.7399832 32.1093204,27.7341779 32.1430243,27.7265584 C34.3988582,27.2124257 36.2177957,25.4077 37.4037086,22.5077664 C38.4124964,20.0415982 38.8818418,16.8933062 38.6916296,13.8701912" id="Fill-4" fill="#F4B200"></path>
                    <path d="M19.3985937,22.9727535 C18.6712697,22.9727535 18.0818092,23.5694305 18.0818092,24.3052535 C18.0818092,25.041258 18.6712697,25.6377535 19.3985937,25.6377535 C20.1259178,25.6377535 20.7153783,25.041258 20.7153783,24.3052535 C20.7153783,23.5694305 20.1259178,22.9727535 19.3985937,22.9727535" id="Fill-6" fill="#EB8A70"></path>
                    <path d="M19.3985937,28.4290372 C19.0350214,28.4290372 18.7401118,28.727285 18.7401118,29.0951965 C18.7401118,29.4632894 19.0350214,29.7615372 19.3985937,29.7615372 C19.7621661,29.7615372 20.0570757,29.4632894 20.0570757,29.0951965 C20.0570757,28.727285 19.7621661,28.4290372 19.3985937,28.4290372" id="Fill-8" fill="#EB8A70"></path>
                    <path d="M19.3985938,16.1839518 C18.3076974,16.1839518 17.4233273,17.0788765 17.4233273,18.1827925 C17.4233273,19.286527 18.3076974,20.1814518 19.3985938,20.1814518 C20.4894901,20.1814518 21.3738602,19.286527 21.3738602,18.1827925 C21.3738602,17.0788765 20.4894901,16.1839518 19.3985938,16.1839518" id="Fill-10" fill="#EB8A70"></path>
                    <path d="M54.6339015,19.1186265 C55.3565643,18.6681708 55.9223604,18.0277726 56.3305725,17.1954363 C56.7378883,16.3632814 56.9424426,15.3916177 56.9424426,14.2777239 C56.9424426,13.1897726 56.7378883,12.2262726 56.3305725,11.388131 C55.9223604,10.5505336 55.3565643,9.90324159 54.6339015,9.4466177 C53.9110594,8.99017522 53.0856712,8.76177257 52.1584541,8.76177257 C51.6267206,8.76177257 51.0397699,8.84957788 50.396885,9.02446283 L50.396885,19.5690823 C51.0524985,19.7187504 51.6514607,19.7942195 52.195385,19.7942195 C53.097862,19.7942195 53.9110594,19.5690823 54.6339015,19.1186265 Z M48.4875923,10.3939717 C48.4875923,9.75575044 48.4006433,9.28406903 48.2280002,8.97711327 C48.0544607,8.6710646 47.708816,8.51758673 47.1899903,8.51758673 L46.874464,8.51758673 L46.874464,8.08617965 L51.7692452,8.08617965 C54.1916268,8.08617965 56.0302847,8.62444071 57.2848604,9.70005575 C58.539436,10.7758522 59.1672617,12.2767062 59.1672617,14.2027991 C59.1672617,15.4411442 58.9046219,16.5329053 58.3789837,17.4764496 C57.8537041,18.4216265 57.0722387,19.1559982 56.0342288,19.6813788 C54.9953225,20.2065779 53.7344722,20.4690867 52.2513192,20.4690867 L48.4875923,20.4690867 L48.4875923,10.3939717 Z" id="Fill-12" fill="#333333"></path>
                    <path d="M61.2065656,10.3940624 C61.2065656,9.75584115 61.1197959,9.28397832 60.9469735,8.97720398 C60.773434,8.67097389 60.4277893,8.51749602 59.9089637,8.51749602 L59.5746133,8.51749602 L59.5746133,8.08627035 L61.3921166,8.08627035 C61.8372597,8.08627035 62.1766298,8.14885885 62.4113025,8.27403584 C62.6457959,8.39921283 62.8134192,8.62435 62.9123798,8.94962876 C63.0109817,9.27490752 63.0609998,9.75584115 63.0609998,10.3940624 L63.0609998,12.3453721 C63.3324242,12.0950181 63.6660574,11.8858456 64.0620788,11.7171288 C64.4573831,11.5476863 64.8964308,11.4636907 65.3785048,11.4636907 C66.3297449,11.4636907 67.1083419,11.7171288 67.7142959,12.2232792 C68.3200706,12.7301553 68.6225097,13.6089341 68.6225097,14.8594341 L68.6225097,20.4691774 L66.7687926,20.4691774 L66.7687926,14.8784827 C66.7687926,14.0027881 66.5832416,13.3585801 66.2128567,12.945496 C65.8415755,12.533319 65.3785048,12.3263235 64.8216725,12.3263235 C64.4883979,12.3263235 64.1698238,12.4141288 63.8673847,12.5890137 C63.5640492,12.7646243 63.2954933,12.9828677 63.0609998,13.245558 L63.0609998,20.4691774 L61.2065656,20.4691774 L61.2065656,10.3940624 Z" id="Fill-14" fill="#333333"></path>
                    <path d="M75.7610237,18.6308173 L75.7610237,16.154127 L75.2789497,16.154127 C74.3637441,16.154127 73.6622359,16.3199412 73.1740664,16.6512066 C72.685897,16.9824721 72.4422605,17.4490739 72.4422605,18.0490164 C72.4422605,18.6117686 72.5930319,19.0429942 72.8963674,19.3437819 C73.1989859,19.6438438 73.585147,19.7942376 74.0552095,19.7942376 C74.771777,19.7942376 75.3399036,19.4063704 75.7610237,18.6308173 M71.3203493,20.0095783 C70.757601,19.5781712 70.4761372,18.9247111 70.4761372,18.0490164 C70.4761372,17.1107332 70.8963609,16.4329633 71.7377046,16.0129854 C72.5779727,15.5946403 73.7579694,15.384742 75.2789497,15.384742 L75.7610237,15.384742 C75.7610237,14.1968305 75.6003921,13.3744721 75.2789497,12.917304 C74.9567901,12.4614058 74.4874447,12.2324588 73.8696586,12.2324588 C73.3377457,12.2324588 72.9085582,12.3545518 72.5811997,12.598919 C72.2536618,12.8423792 72.0213197,13.2645341 71.8854283,13.864658 L70.9960385,13.864658 C70.9960385,13.4401447 71.0202408,13.0958173 71.0699003,12.8333084 C71.1188428,12.5706181 71.2486388,12.3331447 71.4592885,12.1201624 C71.6817704,11.8950252 72.0431914,11.7293925 72.5440895,11.6232642 C73.0442704,11.5171358 73.6100664,11.4636181 74.2400434,11.4636181 C75.3029727,11.4636181 76.1344563,11.7515252 76.7343148,12.3264323 C77.333277,12.9018836 77.6333855,13.9279721 77.6333855,15.4037907 L77.6333855,20.4691049 L76.5396207,20.4691049 L75.8908197,19.6247951 L75.7979546,19.6247951 C75.5754727,19.9125208 75.2540303,20.1568881 74.8338066,20.3569898 C74.4135829,20.5569102 73.9004941,20.6568704 73.2947194,20.6568704 C72.5403247,20.6568704 71.8823806,20.4409854 71.3203493,20.0095783" id="Fill-16" fill="#333333"></path>
                    <path d="M80.2845954,13.9585588 C80.2845954,13.3210633 80.1978257,12.8492004 80.0250033,12.5424261 C79.8514638,12.236196 79.5059984,12.0827181 78.9869934,12.0827181 L78.8014424,12.0827181 L78.8014424,11.6514925 L80.3774605,11.6514925 C80.8344359,11.6514925 81.1838454,11.714081 81.4244342,11.8385323 C81.6659194,11.9637093 81.8417895,12.1707049 81.9534786,12.4577049 C82.2128914,12.1950146 82.543477,11.9637093 82.9446974,11.7636075 C83.3468141,11.5636872 83.7889095,11.463727 84.2709836,11.463727 C84.7650691,11.463727 85.1544572,11.5636872 85.4387895,11.7636075 C85.5746809,11.875904 85.6892385,11.9950942 85.7821036,12.1202712 C85.8742516,12.2454482 85.9767977,12.4079969 86.0875905,12.6080987 L85.2901694,13.2272712 C85.1544572,13.0393243 84.9597632,12.8898376 84.7062664,12.7768155 C84.4527697,12.664519 84.1714852,12.6080987 83.8627714,12.6080987 C83.4916694,12.6080987 83.1551678,12.682842 82.8525493,12.8332358 C82.5493931,12.982904 82.3055773,13.1897181 82.1200263,13.4524084 C82.1322171,13.6020765 82.1383125,13.821227 82.1383125,14.1089527 L82.1383125,20.4692137 L80.2845954,20.4692137 L80.2845954,13.9585588 Z" id="Fill-18" fill="#333333"></path>
                    <path d="M87.8304969,13.9585588 C87.8304969,13.3210633 87.7437271,12.8492004 87.5709048,12.5424261 C87.3980824,12.236196 87.0517206,12.0827181 86.5328949,12.0827181 L86.2175479,12.0827181 L86.2175479,11.6514925 L87.923362,11.6514925 C88.3683258,11.6514925 88.7139706,11.7102712 88.9613719,11.8292801 C89.2087732,11.9484704 89.3882288,12.1324261 89.4993801,12.3827801 L89.592066,12.3827801 C89.8636696,12.1202712 90.2037567,11.9011208 90.6121482,11.7262358 C91.019464,11.5513509 91.4766186,11.463727 91.983612,11.463727 C93.1205824,11.463727 93.8938012,11.8827978 94.3012962,12.7202137 C94.6103686,12.3332535 95.0028044,12.0262978 95.4787831,11.8011606 C95.9540446,11.575842 96.4768143,11.463727 97.044941,11.463727 C97.910487,11.463727 98.5870758,11.7202491 99.0761416,12.2323863 C99.5641317,12.7454305 99.8079475,13.6211252 99.8079475,14.8594704 L99.8079475,20.4692137 L97.9352271,20.4692137 L97.9352271,14.8594704 C97.9352271,13.9585588 97.8084788,13.3119925 97.5549821,12.9172314 C97.3014854,12.5233774 96.9341482,12.3263597 96.4520742,12.3263597 C96.1186202,12.3263597 95.7753061,12.4393819 95.4232074,12.664519 C95.0707502,12.8898376 94.7953817,13.1394659 94.59764,13.4150367 C94.6966005,13.6525102 94.74626,14.1341695 94.74626,14.8594704 L94.74626,20.4692137 L92.8918258,20.4692137 L92.8918258,14.8594704 C92.8918258,13.9716208 92.7650775,13.3272314 92.5124771,12.9272093 C92.2589804,12.5271872 91.8907469,12.3263597 91.4086729,12.3263597 C91.0872304,12.3263597 90.7786959,12.411081 90.4821729,12.5797978 C90.185112,12.7485146 89.9255199,12.964581 89.7028587,13.2272712 L89.7028587,20.4692137 L87.8304969,20.4692137 L87.8304969,13.9585588 Z" id="Fill-20" fill="#333333"></path>
                    <g id="Group-24" transform="translate(101.649671, 11.367522)">
                        <mask id="mask-4" fill="white">
                            <use xlink:href="#path-3"></use>
                        </mask>
                        <g id="Clip-23"></g>
                        <path d="M5.31541727,7.26329513 L5.31541727,4.78660487 L4.83352253,4.78660487 C3.91813766,4.78660487 3.21662944,4.95241903 2.72846003,5.28368451 C2.2404699,5.61495 1.99665411,6.08155177 1.99665411,6.68149425 C1.99665411,7.24424646 2.14760477,7.67547212 2.45076102,7.97625973 C2.75337944,8.27632168 3.13954063,8.42671549 3.60960313,8.42671549 C4.32634984,8.42671549 4.89447648,8.03884823 5.31541727,7.26329513 M0.874742928,8.64205619 C0.311994572,8.21064912 0.0305307566,7.55718894 0.0305307566,6.68149425 C0.0305307566,5.74321106 0.450754441,5.06544115 1.29209819,4.64546327 C2.13254556,4.22711814 3.31236299,4.01721991 4.83352253,4.01721991 L5.31541727,4.01721991 C5.31541727,2.82930841 5.15478569,2.00695 4.83352253,1.54978186 C4.51136299,1.09388363 4.04183832,0.864936726 3.42405214,0.864936726 C2.89213931,0.864936726 2.46295181,0.987029646 2.13559326,1.2313969 C1.8082347,1.47485708 1.57571332,1.89701195 1.44000115,2.49713584 L0.550432072,2.49713584 C0.550432072,2.07262257 0.574634375,1.72829513 0.624293914,1.46578628 C0.673415625,1.20309602 0.803211678,0.965622566 1.01368207,0.752640265 C1.23616398,0.527503097 1.59758503,0.361870354 2.09866234,0.255742035 C2.59884326,0.149613717 3.16463931,0.0960960177 3.79461628,0.0960960177 C4.85736628,0.0960960177 5.68884984,0.384003097 6.28870839,0.958910177 C6.88784984,1.5343615 7.18795839,2.56045 7.18795839,4.03626858 L7.18795839,9.10158274 L6.09401431,9.10158274 L5.44521332,8.25727301 L5.35234819,8.25727301 C5.12986628,8.54499867 4.80842385,8.78936593 4.38820016,8.9894677 C3.96797648,9.18938805 3.45506694,9.28934823 2.84911299,9.28934823 C2.09471826,9.28934823 1.43677418,9.07346327 0.874742928,8.64205619" id="Fill-22" fill="#333333" mask="url(#mask-4)"></path>
                    </g>
                    <path d="M48.0054107,30.4363137 C47.7088877,29.7240748 47.4215077,29.2300792 47.1430916,28.9545084 C46.8655719,28.6796633 46.4912429,28.5169332 46.0213597,28.466681 L46.0213597,28.0909686 L46.6888054,28.0535969 C47.3566097,28.0535969 47.9804913,28.2132429 48.5615258,28.5323535 C49.1423811,28.8514642 49.6303712,29.4866013 50.0263926,30.4363137 L53.1414979,37.8476987 L57.1829238,28.2413624 L58.07321,28.2413624 L52.752289,40.8122164 L52.3071459,40.8122164 L48.0054107,30.4363137 Z" id="Fill-25" fill="#333333"></path>
                    <path d="M60.0197206,30.3431748 C59.8099673,30.0928208 59.7043735,29.7927588 59.7043735,29.4422633 C59.7043735,29.1797544 59.7880956,28.9667721 59.9550018,28.804042 C60.1215495,28.642219 60.3350676,28.5605819 60.5946597,28.5605819 C60.9288308,28.5605819 61.2004344,28.6826748 61.4101877,28.926135 C61.6206581,29.1705022 61.7255347,29.4674801 61.7255347,29.81725 C61.7255347,30.0928208 61.6453982,30.3117898 61.4849459,30.4745199 C61.324135,30.6370686 61.1075692,30.7179801 60.8361449,30.7179801 C60.5017946,30.7179801 60.230191,30.5935288 60.0197206,30.3431748 Z M60.0016137,34.1137235 C60.0016137,33.4764093 59.9148439,33.0045465 59.7420215,32.6975907 C59.5684821,32.391542 59.2231959,32.2380642 58.7032946,32.2380642 L58.3886646,32.2380642 L58.3886646,31.8066571 L60.1864475,31.8066571 C60.6315906,31.8066571 60.9718571,31.8692456 61.2065298,31.9936969 C61.4412025,32.1188739 61.6077502,32.3441925 61.7074278,32.6694712 C61.806209,32.9945686 61.8551515,33.4764093 61.8551515,34.1137235 L61.8551515,40.6243783 L60.0016137,40.6243783 L60.0016137,34.1137235 Z" id="Fill-27" fill="#333333"></path>
                    <path d="M65.7488717,40.2022053 C65.1181776,39.796015 64.6481151,39.2455991 64.3397599,38.5516832 C64.0303289,37.8568602 63.8765099,37.078223 63.8765099,36.2155903 C63.8765099,35.3520504 64.0303289,34.5734133 64.3397599,33.8793159 C64.6481151,33.1854 65.1181776,32.6349841 65.7488717,32.2280681 C66.3788487,31.8218779 67.1454342,31.6188735 68.0475526,31.6188735 C69.4321036,31.6188735 70.3403174,31.8380239 70.773449,32.2754177 C70.9832023,32.4884 71.1129984,32.7541743 71.1626579,33.0723779 C71.2117796,33.3914885 71.2365197,33.9580504 71.2365197,34.7711566 L70.8293832,34.7711566 C70.7795444,33.9954221 70.5380592,33.4045504 70.105824,32.9976345 C69.6726924,32.5914442 69.1047451,32.3877142 68.4000099,32.3877142 C67.5595625,32.3877142 66.9197253,32.7349442 66.4806776,33.4290416 C66.0425263,34.1236832 65.8229128,35.0519885 65.8229128,36.2155903 C65.8229128,37.3911655 66.0385822,38.3234619 66.4717138,39.0112097 C66.903949,39.6991389 67.5534671,40.0425593 68.4190132,40.0425593 C69.0367993,40.0425593 69.5497089,39.918108 69.9572039,39.667754 C70.3652368,39.4174 70.7424342,39.0364265 71.0887961,38.5233823 L71.5151151,38.8424929 C71.1189145,39.4930504 70.643653,39.9837805 70.0868207,40.3152274 C69.5308849,40.6464929 68.8512484,40.8121257 68.0475526,40.8121257 C67.1454342,40.8121257 66.3788487,40.6091212 65.7488717,40.2022053" id="Fill-29" fill="#333333"></path>
                    <path d="M73.368635,30.5492996 C73.368635,29.9110783 73.2827617,29.4392155 73.1092222,29.1322597 C72.9363998,28.8262111 72.590038,28.6727332 72.0710331,28.6727332 L71.7375791,28.6727332 L71.7375791,28.2415075 L73.554186,28.2415075 C73.9995084,28.2415075 74.3395956,28.304096 74.5742683,28.429273 C74.808941,28.55445 74.9756679,28.7795872 75.0744492,29.1048659 C75.1732304,29.4301447 75.2230692,29.9110783 75.2230692,30.5492996 L75.2230692,32.5006093 C75.4946729,32.2502553 75.8290232,32.0410827 76.2243275,31.8723659 C76.6196317,31.7029235 77.0586794,31.6189279 77.5405742,31.6189279 C78.4927107,31.6189279 79.271487,31.8723659 79.8772617,32.3785164 C80.4823192,32.8853925 80.7854755,33.7641712 80.7854755,35.0146712 L80.7854755,40.6244146 L78.9310413,40.6244146 L78.9310413,35.0337199 C78.9310413,34.1580252 78.7462074,33.5138173 78.3751054,33.1007332 C78.0038242,32.6885562 77.5405742,32.4815606 76.9846383,32.4815606 C76.6504673,32.4815606 76.3320725,32.5693659 76.0296334,32.7442509 C75.7262979,32.9196801 75.4577419,33.1381049 75.2230692,33.4007951 L75.2230692,40.6244146 L73.368635,40.6244146 L73.368635,30.5492996 Z" id="Fill-31" fill="#333333"></path>
                    <path d="M87.9239895,38.786 L87.9239895,36.3094912 L87.4419155,36.3094912 C86.5267099,36.3094912 85.8252016,36.4751239 85.3370322,36.8063894 C84.8490421,37.1378363 84.6052263,37.6042566 84.6052263,38.2041991 C84.6052263,38.7669513 84.756177,39.198177 85.0593332,39.4989646 C85.3619516,39.7990265 85.7481128,39.9494204 86.2181753,39.9494204 C86.934922,39.9494204 87.5028694,39.5617345 87.9239895,38.786 M83.4833151,40.1647611 C82.9205668,39.733354 82.639103,39.0798938 82.639103,38.2041991 C82.639103,37.2660973 83.0593266,36.588146 83.9006704,36.1681681 C84.7409385,35.749823 85.9209352,35.5399248 87.4419155,35.5399248 L87.9239895,35.5399248 C87.9239895,34.3520133 87.7633579,33.5298363 87.4419155,33.0724867 C87.1197559,32.6165885 86.6504105,32.3876416 86.0326243,32.3876416 C85.5007115,32.3876416 85.071524,32.5097345 84.7441655,32.7541018 C84.4166276,32.9975619 84.1842855,33.4197168 84.0485734,34.0198407 L83.1590043,34.0198407 C83.1590043,33.5953274 83.1832066,33.251 83.2328661,32.9884912 C83.2818086,32.7258009 83.4117839,32.4883274 83.6222543,32.2753451 C83.8447362,32.050208 84.2061572,31.8845752 84.7070553,31.7784469 C85.2072362,31.6723186 85.7730322,31.6188009 86.4031885,31.6188009 C87.4659385,31.6188009 88.297422,31.906708 88.8972806,32.481615 C89.4962428,33.0572478 89.7963513,34.0831549 89.7963513,35.5589735 L89.7963513,40.624469 L88.7025865,40.624469 L88.0537855,39.7799779 L87.9609204,39.7799779 C87.7384385,40.067885 87.4169961,40.3120708 86.9967724,40.5121726 C86.5765487,40.7120929 86.0634599,40.8122345 85.4576852,40.8122345 C84.7032905,40.8122345 84.0453464,40.5961681 83.4833151,40.1647611" id="Fill-33" fill="#333333"></path>
                    <path d="M92.4475612,34.113796 C92.4475612,33.4763004 92.3607914,33.0044376 92.1881484,32.6976633 C92.0144296,32.3914332 91.6689641,32.2379553 91.1499592,32.2379553 L90.9644082,32.2379553 L90.9644082,31.8067296 L92.5404263,31.8067296 C92.9974016,31.8067296 93.3469905,31.8693181 93.5874,31.9937695 C93.8288852,32.1189465 94.0047553,32.3257606 94.1164444,32.612942 C94.3758572,32.3502518 94.7064428,32.1189465 95.1076632,31.9188447 C95.5097799,31.7189243 95.9518753,31.6189642 96.4339493,31.6189642 C96.9280349,31.6189642 97.317423,31.7189243 97.6019345,31.9188447 C97.7376467,32.0311412 97.8522043,32.1503314 97.9450694,32.275327 C98.0372174,32.4006854 98.1397635,32.5632341 98.2505563,32.7633358 L97.4533145,33.3825084 C97.317423,33.1945615 97.1227289,33.0448934 96.8692322,32.9320527 C96.6157355,32.8197562 96.334451,32.7633358 96.0259164,32.7633358 C95.6546352,32.7633358 95.3183128,32.8380792 95.0156944,32.988473 C94.7123589,33.1381412 94.4685431,33.3449553 94.2829921,33.6076456 C94.2951829,33.7573137 94.3012783,33.9762827 94.3012783,34.2641898 L94.3012783,40.6244509 L92.4475612,40.6244509 L92.4475612,34.113796 Z" id="Fill-35" fill="#333333"></path>
                    <path d="M104.369078,38.786 L104.369078,36.3094912 L103.887183,36.3094912 C102.971798,36.3094912 102.27029,36.4751239 101.78212,36.8063894 C101.29413,37.1378363 101.050314,37.6042566 101.050314,38.2041991 C101.050314,38.7669513 101.201265,39.198177 101.504421,39.4989646 C101.80704,39.7990265 102.193201,39.9494204 102.663263,39.9494204 C103.38001,39.9494204 103.948137,39.5617345 104.369078,38.786 M99.9284033,40.1647611 C99.3656549,39.733354 99.0841911,39.0798938 99.0841911,38.2041991 C99.0841911,37.2660973 99.5044148,36.588146 100.345759,36.1681681 C101.186206,35.749823 102.366023,35.5399248 103.887183,35.5399248 L104.369078,35.5399248 C104.369078,34.3520133 104.208446,33.5298363 103.887183,33.0724867 C103.565023,32.6165885 103.095499,32.3876416 102.477713,32.3876416 C101.9458,32.3876416 101.516612,32.5097345 101.189254,32.7541018 C100.861895,32.9975619 100.629374,33.4197168 100.493662,34.0198407 L99.6040924,34.0198407 C99.6040924,33.5953274 99.6282947,33.251 99.6779543,32.9884912 C99.727076,32.7258009 99.856872,32.4883274 100.067342,32.2753451 C100.289824,32.050208 100.651245,31.8845752 101.152323,31.7784469 C101.652504,31.6723186 102.2183,31.6188009 102.848277,31.6188009 C103.911027,31.6188009 104.74251,31.906708 105.342369,32.481615 C105.94151,33.0572478 106.241619,34.0831549 106.241619,35.5589735 L106.241619,40.624469 L105.147675,40.624469 L104.498874,39.7799779 L104.406009,39.7799779 C104.183527,40.067885 103.862084,40.3120708 103.441861,40.5121726 C103.021637,40.7120929 102.508727,40.8122345 101.902773,40.8122345 C101.148379,40.8122345 100.490435,40.5961681 99.9284033,40.1647611" id="Fill-37" fill="#333333"></path>
                </g>
            </g>
        </g>
    </g>
</svg>